# File created by Blade
# Date/Time:  Tue Jan 27 17:27:44 2015
#---------------------------------------------------------
:version 1.10
:name HOM
:units
  mass 1.0
  length 1.000000
  angle deg
:documentation
     Acclaim Skeleton File
:root
   axis xyz
   order TX TY TZ RX RY RZ
   position 0.000000 0.000000 0.000000
   orientation 0 0 0
:bonedata
   begin
      id 1
      name Spine_dum
      direction 0.000000 1.000000 0.000000
      length 7.539951
      axis 0.0 0.0 0.0 xyz
   end
   begin
      id 2
      name LeftUpLeg_dum
      direction 1.000000 0.000000 0.000000
      length 3.345476
      axis 0.0 0.0 0.0 xyz
   end
   begin
      id 3
      name RightUpLeg_dum
      direction -1.000000 0.000000 0.000000
      length 3.345476
      axis 0.0 0.0 0.0 xyz
   end
   begin
      id 4
      name Spine
      direction 0.000000 1.000000 0.000000
      length 0.000000
      axis 0.0 0.0 0.0 xyz
      dof rx ry rz
   end
   begin
      id 5
      name Spine_dum1
      direction 0.000000 1.000000 0.000000
      length 15.093809
      axis 0.0 0.0 0.0 xyz
   end
   begin
      id 6
      name Spine_dum2
      direction 0.000000 1.000000 0.000000
      length 9.738928
      axis 0.0 0.0 0.0 xyz
   end
   begin
      id 7
      name Spine_dum3
      direction 0.000000 1.000000 0.000000
      length 9.738928
      axis 0.0 0.0 0.0 xyz
   end
   begin
      id 8
      name Head
      direction 0.000000 1.000000 0.000000
      length 4.527550
      axis 0.0 0.0 0.0 xyz
      dof rx ry rz
   end
   begin
      id 9
      name LeftShoulder
      direction 1.000000 0.000000 0.000000
      length 7.084015
      axis 0.0 0.0 -90.0 xyz
      dof rx ry rz
   end
   begin
      id 10
      name LeftArm
      direction 1.000000 0.000000 0.000000
      length 10.259319
      axis 0.0 0.0 -90.0 xyz
      dof rx ry rz
   end
   begin
      id 11
      name LeftForeArm
      direction 1.000000 0.000000 0.000000
      length 9.896984
      axis 0.0 0.0 -90.0 xyz
      dof ry rz rx
   end
   begin
      id 12
      name LeftHand
      direction 0.000000 0.000000 0.000000
      length 0.000000
      axis 0.0 0.0 -90.0 xyz
      dof rx ry rz
   end
   begin
      id 13
      name LeftHand_dum1
      direction 0.000000 0.000000 0.000000
      length 0.000000
      axis 0.0 0.0 -90.0 xyz
   end
   begin
      id 14
      name LeftHand_dum2
      direction 1.000000 0.000000 0.000000
      length 3.937000
      axis 0.0 0.0 -90.0 xyz
   end
   begin
      id 15
      name LeftHandThumb1
      direction 0.000000 0.000000 1.000000
      length 3.937000
      axis 0.0 0.0 -90.0 xyz
      dof rx rz ry
   end
   begin
      id 16
      name RightShoulder
      direction -1.000000 0.000000 0.000000
      length 7.084015
      axis 0.0 0.0 90.0 xyz
      dof rx ry rz
   end
   begin
      id 17
      name RightArm
      direction -1.000000 0.000000 0.000000
      length 10.259319
      axis 0.0 0.0 90.0 xyz
      dof rx ry rz
   end
   begin
      id 18
      name RightForeArm
      direction -1.000000 0.000000 0.000000
      length 9.896984
      axis 0.0 0.0 90.0 xyz
      dof ry rz rx
   end
   begin
      id 19
      name RightHand
      direction 0.000000 0.000000 0.000000
      length 0.000000
      axis 0.0 0.0 90.0 xyz
      dof rx ry rz
   end
   begin
      id 20
      name RightHand_dum1
      direction 0.000000 0.000000 0.000000
      length 0.000000
      axis 0.0 0.0 90.0 xyz
   end
   begin
      id 21
      name RightHand_dum2
      direction -1.000000 0.000000 0.000000
      length 3.937000
      axis 0.0 0.0 90.0 xyz
   end
   begin
      id 22
      name RightHandThumb1
      direction 0.000000 0.000000 1.000000
      length 3.937000
      axis 0.0 0.0 90.0 xyz
      dof rx rz ry
   end
   begin
      id 23
      name LeftUpLeg
      direction 0.000000 -1.000000 0.000000
      length 19.114733
      axis 0.0 0.0 0.0 xyz
      dof rx ry rz
   end
   begin
      id 24
      name LeftLeg
      direction 0.000000 -1.000000 0.000000
      length 16.045604
      axis 0.0 0.0 0.0 xyz
      dof rx ry rz
   end
   begin
      id 25
      name LeftFoot
      direction 0.000000 -0.258819 0.965926
      length 5.543155
      axis 15.0 0.0 0.0 xyz
      dof rx ry rz
   end
   begin
      id 26
      name LeftToeBase
      direction 0.000000 0.000000 1.000000
      length 2.952750
      axis 0.0 0.0 0.0 xyz
      dof rx ry rz
   end
   begin
      id 27
      name RightUpLeg
      direction 0.000000 -1.000000 0.000000
      length 19.114733
      axis 0.0 0.0 0.0 xyz
      dof rx ry rz
   end
   begin
      id 28
      name RightLeg
      direction 0.000000 -1.000000 0.000000
      length 16.045604
      axis 0.0 0.0 0.0 xyz
      dof rx ry rz
   end
   begin
      id 29
      name RightFoot
      direction 0.000000 -0.258819 0.965926
      length 5.543155
      axis 15.0 0.0 0.0 xyz
      dof rx ry rz
   end
   begin
      id 30
      name RightToeBase
      direction 0.000000 0.000000 1.000000
      length 2.952750
      axis 0.0 0.0 0.0 xyz
      dof rx ry rz
   end
:hierarchy
   begin
      root Spine_dum LeftUpLeg_dum RightUpLeg_dum
      Spine_dum Spine
      LeftUpLeg_dum LeftUpLeg
      RightUpLeg_dum RightUpLeg
      Spine Spine_dum1 Spine_dum2 Spine_dum3
      Spine_dum1 Head
      Spine_dum2 LeftShoulder
      Spine_dum3 RightShoulder
      LeftShoulder LeftArm
      LeftArm LeftForeArm
      LeftForeArm LeftHand
      LeftHand LeftHand_dum1 LeftHand_dum2
      LeftHand_dum1 LeftHandThumb1
      RightShoulder RightArm
      RightArm RightForeArm
      RightForeArm RightHand
      RightHand RightHand_dum1 RightHand_dum2
      RightHand_dum1 RightHandThumb1
      LeftUpLeg LeftLeg
      LeftLeg LeftFoot
      LeftFoot LeftToeBase
      RightUpLeg RightLeg
      RightLeg RightFoot
      RightFoot RightToeBase
   end

# File created by Blade
# Date/Time:  Tue Jan 27 17:27:32 2015
# Frame Rate: 120.000 fps
#------------------------------------------------------
:FULLY-SPECIFIED
:DEGREES
1048
root 5.043704 36.624579 -0.009415 17.111677 9.724003 5.742864
Spine -11.422356 22.183150 -8.358888
Head 9.489044 7.790447 -16.046167
LeftShoulder -8.822778 -9.563696 0.971895
LeftArm 0.664592 -17.533986 -50.955630
LeftForeArm 9.041287 -0.000000 107.908868
LeftHand -17.197610 -0.000000 30.827744
LeftHandThumb1 -26.253704 0.000000 33.147579
RightShoulder 0.076951 -20.131482 -5.741882
RightArm 19.459222 -23.718462 61.261078
RightForeArm 189.775969 -0.000000 22.517255
RightHand 0.070172 -0.000000 3.453867
RightHandThumb1 -24.326973 -0.000000 -32.862282
LeftUpLeg -14.748589 -3.608097 -9.519199
LeftLeg 3.362869 -0.000000 -0.000000
LeftFoot -11.221959 -4.386730 -10.921533
LeftToeBase 9.417715 -0.000000 -0.000000
RightUpLeg -47.535901 -29.891659 9.384808
RightLeg 123.853736 -0.000000 -0.000000
RightFoot 5.611171 23.969450 11.174426
RightToeBase -0.072349 -0.000000 0.000000
1049
root 5.039933 36.630996 -0.011225 17.123953 9.645639 5.659161
Spine -11.402682 22.161047 -8.308064
Head 9.294918 7.808853 -16.126166
LeftShoulder -8.841097 -9.547120 1.009509
LeftArm 0.592958 -17.746469 -51.059209
LeftForeArm 9.082211 -0.000000 108.000577
LeftHand -17.291648 0.000000 30.855541
LeftHandThumb1 -26.253704 0.000000 33.147579
RightShoulder 0.184685 -20.005197 -5.757243
RightArm 19.412780 -23.276667 61.323623
RightForeArm 189.859384 -0.000000 22.497351
RightHand 0.121360 -0.000000 3.331791
RightHandThumb1 -24.326973 -0.000000 -32.862282
LeftUpLeg -14.785460 -3.616347 -9.427394
LeftLeg 3.359203 -0.000000 -0.000000
LeftFoot -11.182739 -4.333482 -10.791672
LeftToeBase 9.173762 -0.000000 -0.000000
RightUpLeg -47.569507 -30.288346 9.696951
RightLeg 123.751448 -0.000000 -0.000000
RightFoot 6.189352 24.856298 11.956156
RightToeBase 0.446617 -0.000000 -0.000000
1050
root 5.033842 36.637690 -0.013442 17.137426 9.599852 5.572371
Spine -11.376381 22.136250 -8.260216
Head 9.092383 7.798891 -16.157954
LeftShoulder -8.833078 -9.537256 1.025889
LeftArm 0.512324 -17.945468 -51.114767
LeftForeArm 9.116851 -0.000000 108.112113
LeftHand -17.362381 0.000000 30.792724
LeftHandThumb1 -26.253704 0.000000 33.147579
RightShoulder 0.232669 -19.935451 -5.778162
RightArm 19.459768 -23.052502 61.285492
RightForeArm 189.947211 -0.000000 22.486788
RightHand 0.085137 0.000000 3.484957
RightHandThumb1 -24.326973 -0.000000 -32.862282
LeftUpLeg -14.852394 -3.596439 -9.323277
LeftLeg 3.410632 -0.000000 -0.000000
LeftFoot -11.215866 -4.338452 -10.941331
LeftToeBase 9.334146 -0.000000 -0.000000
RightUpLeg -47.620290 -30.708145 10.040428
RightLeg 123.673778 -0.000000 -0.000000
RightFoot 6.528479 25.553140 12.416201
RightToeBase 0.452275 -0.000000 -0.000000
1051
root 5.027910 36.645991 -0.017377 17.159409 9.541045 5.483768
Spine -11.359519 22.134685 -8.220817
Head 8.901187 7.785861 -16.182301
LeftShoulder -8.811863 -9.540836 1.049409
LeftArm 0.385090 -18.094188 -51.152422
LeftForeArm 9.120420 -0.000000 108.230303
LeftHand -17.367601 0.000000 30.786696
LeftHandThumb1 -26.253704 0.000000 33.147579
RightShoulder 0.279684 -19.859271 -5.795723
RightArm 19.481636 -22.864537 61.237490
RightForeArm 190.041230 -0.000000 22.498752
RightHand 0.014074 -0.000000 3.539126
RightHandThumb1 -24.326973 -0.000000 -32.862282
LeftUpLeg -14.908827 -3.767528 -9.169516
LeftLeg 3.404488 -0.000000 -0.000000
LeftFoot -11.220767 -4.184553 -11.097186
LeftToeBase 9.401608 -0.000000 -0.000000
RightUpLeg -47.683290 -31.097329 10.350288
RightLeg 123.631011 -0.000000 -0.000000
RightFoot 6.876334 26.132494 13.085803
RightToeBase 0.064044 -0.000000 -0.000000
1052
root 5.018100 36.653269 -0.024590 17.220087 9.452400 5.399894
Spine -11.403252 22.170903 -8.247644
Head 8.726927 7.722992 -16.160094
LeftShoulder -8.797045 -9.540758 1.113676
LeftArm 0.295212 -18.197130 -51.189900
LeftForeArm 9.123732 0.000000 108.314610
LeftHand -17.357754 -0.000000 30.779832
LeftHandThumb1 -26.253704 0.000000 33.147579
RightShoulder 0.312743 -19.816631 -5.803262
RightArm 19.554817 -22.715019 61.182211
RightForeArm 190.137217 -0.000000 22.467469
RightHand -0.028145 0.000000 3.689635
RightHandThumb1 -24.326973 -0.000000 -32.862282
LeftUpLeg -15.055712 -3.707786 -9.067782
LeftLeg 3.500962 -0.000000 -0.000000
LeftFoot -11.206184 -4.261141 -11.160561
LeftToeBase 9.343040 -0.000000 -0.000000
RightUpLeg -47.786835 -31.359132 10.646445
RightLeg 123.628682 -0.000000 -0.000000
RightFoot 7.173657 26.568468 13.945269
RightToeBase -0.229485 -0.000000 0.000000
1053
root 5.010249 36.660178 -0.026241 17.207368 9.448505 5.323336
Spine -11.344381 22.145959 -8.211839
Head 8.576689 7.661294 -16.118225
LeftShoulder -8.778351 -9.546952 1.153141
LeftArm 0.224027 -18.284396 -51.228920
LeftForeArm 9.135239 -0.000000 108.394269
LeftHand -17.346806 -0.000000 30.836708
LeftHandThumb1 -26.253704 0.000000 33.147579
RightShoulder 0.361022 -19.777696 -5.813034
RightArm 19.583670 -22.541222 61.139567
RightForeArm 190.182084 -0.000000 22.479428
RightHand -0.039447 0.000000 3.858743
RightHandThumb1 -24.326973 -0.000000 -32.862282
LeftUpLeg -15.115403 -3.698281 -8.967158
LeftLeg 3.606951 -0.000000 -0.000000
LeftFoot -11.204600 -4.314221 -11.179054
LeftToeBase 9.245976 -0.000000 -0.000000
RightUpLeg -47.784287 -31.680205 10.858289
RightLeg 123.657609 -0.000000 -0.000000
RightFoot 7.209753 26.848019 14.354049
RightToeBase -0.401315 -0.000000 0.000000
1054
root 5.003824 36.666908 -0.027949 17.181156 9.455380 5.253899
Spine -11.270344 22.120922 -8.169056
Head 8.471096 7.594492 -16.066943
LeftShoulder -8.734970 -9.538973 1.172127
LeftArm 0.155377 -18.374725 -51.233191
LeftForeArm 9.106231 0.000000 108.476630
LeftHand -17.351483 -0.000000 30.868915
LeftHandThumb1 -26.253704 0.000000 33.147579
RightShoulder 0.413095 -19.727969 -5.820497
RightArm 19.583011 -22.342825 61.114779
RightForeArm 190.189393 0.000000 22.472562
RightHand -0.033254 -0.000000 3.987299
RightHandThumb1 -24.326973 -0.000000 -32.862282
LeftUpLeg -15.143114 -3.701885 -8.879417
LeftLeg 3.678068 -0.000000 -0.000000
LeftFoot -11.220208 -4.337232 -11.186971
LeftToeBase 9.312887 -0.000000 -0.000000
RightUpLeg -47.768142 -31.967630 11.026486
RightLeg 123.698847 -0.000000 -0.000000
RightFoot 7.085797 26.966638 14.449596
RightToeBase -1.275317 -0.000000 0.000000
1055
root 4.996030 36.673445 -0.028403 17.128191 9.446080 5.164776
Spine -11.168961 22.114325 -8.100560
Head 8.375706 7.540281 -16.014671
LeftShoulder -8.726682 -9.524008 1.178151
LeftArm 0.147561 -18.445902 -51.234018
LeftForeArm 9.106106 -0.000000 108.523335
LeftHand -17.336135 -0.000000 30.850900
LeftHandThumb1 -26.253704 0.000000 33.147579
RightShoulder 0.486126 -19.671429 -5.841711
RightArm 19.591106 -22.180981 61.079081
RightForeArm 190.244256 -0.000000 22.417363
RightHand -0.144339 0.000000 3.987058
RightHandThumb1 -24.326973 -0.000000 -32.862282
LeftUpLeg -15.126271 -3.686973 -8.777375
LeftLeg 3.705298 -0.000000 -0.000000
LeftFoot -11.216222 -4.340220 -11.164269
LeftToeBase 9.269709 -0.000000 -0.000000
RightUpLeg -47.717861 -32.188430 11.156520
RightLeg 123.717961 -0.000000 -0.000000
RightFoot 7.337695 26.809782 14.972296
RightToeBase -1.796188 -0.000000 0.000000
1056
root 4.989469 36.678466 -0.027950 17.071199 9.467108 5.092652
Spine -11.071064 22.096966 -8.046299
Head 8.313262 7.452135 -15.953306
LeftShoulder -8.684703 -9.493017 1.197097
LeftArm 0.134700 -18.518507 -51.243595
LeftForeArm 9.078187 -0.000000 108.584530
LeftHand -17.340241 0.000000 30.842967
LeftHandThumb1 -26.253704 0.000000 33.147579
RightShoulder 0.547416 -19.610785 -5.858890
RightArm 19.579090 -22.068998 61.049729
RightForeArm 190.227251 -0.000000 22.369759
RightHand -0.087423 0.000000 4.125105
RightHandThumb1 -24.326973 -0.000000 -32.862282
LeftUpLeg -15.081770 -3.715731 -8.687154
LeftLeg 3.702546 -0.000000 -0.000000
LeftFoot -11.210351 -4.325193 -11.204267
LeftToeBase 9.266089 -0.000000 -0.000000
RightUpLeg -47.668480 -32.369779 11.242210
RightLeg 123.763752 -0.000000 -0.000000
RightFoot 7.377921 26.391302 15.195699
RightToeBase -1.788401 -0.000000 0.000000
1057
root 4.981343 36.682794 -0.026252 16.976463 9.472715 5.006700
Spine -10.926258 22.112029 -7.977853
Head 8.271192 7.366040 -15.852440
LeftShoulder -8.657373 -9.495059 1.208631
LeftArm 0.156576 -18.541981 -51.237663
LeftForeArm 9.062088 -0.000000 108.627768
LeftHand -17.363321 0.000000 30.913970
LeftHandThumb1 -26.253704 0.000000 33.147579
RightShoulder 0.599619 -19.550331 -5.867250
RightArm 19.568047 -21.922569 61.023571
RightForeArm 190.363918 -0.000000 22.295504
RightHand -0.152391 0.000000 4.117859
RightHandThumb1 -24.326973 -0.000000 -32.862282
LeftUpLeg -14.986894 -3.741006 -8.585191
LeftLeg 3.660803 -0.000000 -0.000000
LeftFoot -11.220867 -4.267728 -11.151697
LeftToeBase 9.259965 -0.000000 -0.000000
RightUpLeg -47.560196 -32.474958 11.256408
RightLeg 123.783990 -0.000000 -0.000000
RightFoot 7.464382 25.932511 15.356670
RightToeBase -1.619129 -0.000000 0.000000
1058
root 4.972787 36.687151 -0.025362 16.910868 9.485797 4.923860
Spine -10.835347 22.131337 -7.929627
Head 8.287113 7.270219 -15.727154
LeftShoulder -8.632584 -9.500295 1.235656
LeftArm 0.191590 -18.530219 -51.232216
LeftForeArm 9.035991 0.000000 108.647342
LeftHand -17.397107 0.000000 30.984105
LeftHandThumb1 -26.253704 0.000000 33.147579
RightShoulder 0.657818 -19.512572 -5.894614
RightArm 19.537720 -21.823185 61.017954
RightForeArm 190.305904 -0.000000 22.251431
RightHand -0.140165 0.000000 4.134078
RightHandThumb1 -24.326973 -0.000000 -32.862282
LeftUpLeg -14.928707 -3.741320 -8.492641
LeftLeg 3.638680 -0.000000 -0.000000
LeftFoot -11.218057 -4.244315 -11.156731
LeftToeBase 9.241127 -0.000000 -0.000000
RightUpLeg -47.481299 -32.486678 11.239511
RightLeg 123.791446 -0.000000 -0.000000
RightFoot 7.443917 25.311196 15.494993
RightToeBase -1.601073 -0.000000 0.000000
